<svg width="25" height="24" viewBox="0 0 25 24" fill="none" xmlns="http://www.w3.org/2000/svg">
<path d="M9.66483 15.1608L6.14823 6.29004L2.63164 15.1608M6.14834 18.8807C3.99829 18.8807 2.23881 17.1118 2.09961 14.8746H10.1971C10.0579 17.1118 8.2984 18.8807 6.14834 18.8807Z" stroke="#6D7073" stroke-width="1.5" stroke-linejoin="round"/>
<path d="M21.5672 15.1608L18.0506 6.29004L14.534 15.1608M18.0507 18.8807C15.9006 18.8807 14.1412 17.1118 14.002 14.8746H22.0994C21.9602 17.1118 20.2007 18.8807 18.0507 18.8807Z" stroke="#6D7073" stroke-width="1.5" stroke-linejoin="round"/>
<mask id="path-3-inside-1_11345_13839" fill="white">
<path fill-rule="evenodd" clip-rule="evenodd" d="M13.9837 6.28922C13.8525 7.25993 13.0633 8.00613 12.1094 8.00613C11.1554 8.00613 10.3662 7.25993 10.235 6.28922H5.8877C5.8877 5.81511 6.27204 5.43076 6.74615 5.43076H10.2942C10.527 4.60336 11.2516 4 12.1094 4C12.9671 4 13.6917 4.60336 13.9245 5.43076H17.2021C17.6762 5.43076 18.0605 5.81511 18.0605 6.28922H13.9837ZM13.1914 6.00307C13.1914 6.63522 12.7069 7.14768 12.1094 7.14768C11.5118 7.14768 11.0273 6.63522 11.0273 6.00307C11.0273 5.37092 11.5118 4.85846 12.1094 4.85846C12.7069 4.85846 13.1914 5.37092 13.1914 6.00307Z"/>
</mask>
<path fill-rule="evenodd" clip-rule="evenodd" d="M13.9837 6.28922C13.8525 7.25993 13.0633 8.00613 12.1094 8.00613C11.1554 8.00613 10.3662 7.25993 10.235 6.28922H5.8877C5.8877 5.81511 6.27204 5.43076 6.74615 5.43076H10.2942C10.527 4.60336 11.2516 4 12.1094 4C12.9671 4 13.6917 4.60336 13.9245 5.43076H17.2021C17.6762 5.43076 18.0605 5.81511 18.0605 6.28922H13.9837ZM13.1914 6.00307C13.1914 6.63522 12.7069 7.14768 12.1094 7.14768C11.5118 7.14768 11.0273 6.63522 11.0273 6.00307C11.0273 5.37092 11.5118 4.85846 12.1094 4.85846C12.7069 4.85846 13.1914 5.37092 13.1914 6.00307Z" fill="#6D7073"/>
<path d="M13.9837 6.28922V4.78922H12.6729L12.4973 6.08822L13.9837 6.28922ZM10.235 6.28922L11.7215 6.08822L11.5458 4.78922H10.235V6.28922ZM10.2942 5.43076V6.93076H11.4304L11.7382 5.837L10.2942 5.43076ZM13.9245 5.43076L12.4806 5.837L12.7883 6.93076H13.9245V5.43076ZM12.1094 8.64768C13.6137 8.64768 14.6914 7.38306 14.6914 6.00307H11.6914C11.6914 5.88737 11.8002 5.64768 12.1094 5.64768V8.64768ZM9.52733 6.00307C9.52733 7.38306 10.605 8.64768 12.1094 8.64768V5.64768C12.4185 5.64768 12.5273 5.88737 12.5273 6.00307H9.52733ZM12.1094 3.35846C10.605 3.35846 9.52733 4.62307 9.52733 6.00307H12.5273C12.5273 6.11876 12.4185 6.35846 12.1094 6.35846V3.35846ZM14.6914 6.00307C14.6914 4.62307 13.6137 3.35846 12.1094 3.35846V6.35846C11.8002 6.35846 11.6914 6.11876 11.6914 6.00307H14.6914ZM12.1094 9.50613C13.8875 9.50613 15.2485 8.1297 15.4702 6.49022L12.4973 6.08822C12.4564 6.39016 12.2391 6.50613 12.1094 6.50613V9.50613ZM8.74851 6.49022C8.9702 8.1297 10.3312 9.50613 12.1094 9.50613V6.50613C11.9797 6.50613 11.7623 6.39016 11.7215 6.08822L8.74851 6.49022ZM5.8877 7.78922H10.235V4.78922H5.8877V7.78922ZM10.2942 3.93076H6.74615V6.93076H10.2942V3.93076ZM12.1094 2.5C10.513 2.5 9.24636 3.61671 8.85028 5.02452L11.7382 5.837C11.8077 5.59 11.9902 5.5 12.1094 5.5V2.5ZM15.3684 5.02452C14.9724 3.61671 13.7057 2.5 12.1094 2.5V5.5C12.2286 5.5 12.4111 5.59 12.4806 5.837L15.3684 5.02452ZM17.2021 3.93076H13.9245V6.93076H17.2021V3.93076ZM13.9837 7.78922H18.0605V4.78922H13.9837V7.78922ZM17.2021 6.93076C16.8477 6.93076 16.5605 6.64353 16.5605 6.28922H19.5605C19.5605 4.98668 18.5046 3.93076 17.2021 3.93076V6.93076ZM7.3877 6.28922C7.3877 6.64353 7.10047 6.93076 6.74615 6.93076V3.93076C5.44361 3.93076 4.3877 4.98668 4.3877 6.28922H7.3877Z" fill="#6D7073" mask="url(#path-3-inside-1_11345_13839)"/>
</svg>
