<svg width="25" height="24" viewBox="0 0 25 24" fill="none" xmlns="http://www.w3.org/2000/svg">
<path d="M9.18652 21.3335C10.015 21.3335 10.6865 20.6619 10.6865 19.8335C10.6865 19.0051 10.015 18.3335 9.18652 18.3335C8.3581 18.3335 7.68652 19.0051 7.68652 19.8335C7.68652 20.6619 8.3581 21.3335 9.18652 21.3335Z" fill="white"/>
<path d="M18.2998 21.3335C19.1282 21.3335 19.7998 20.6619 19.7998 19.8335C19.7998 19.0051 19.1282 18.3335 18.2998 18.3335C17.4714 18.3335 16.7998 19.0051 16.7998 19.8335C16.7998 20.6619 17.4714 21.3335 18.2998 21.3335Z" fill="white"/>
<path d="M22.3535 3.58015C22.2914 3.50368 22.2132 3.4419 22.1245 3.39925C22.0357 3.3566 21.9386 3.33414 21.8401 3.33349H7.96012L8.39346 4.66682H20.9668L19.1868 12.6668H9.18679L6.14012 3.02015C6.10717 2.91779 6.04994 2.82492 5.97332 2.74947C5.89671 2.67401 5.80297 2.61821 5.70012 2.58682L2.96679 1.74682C2.88274 1.72099 2.79443 1.71197 2.7069 1.72028C2.61937 1.72858 2.53433 1.75404 2.45664 1.79521C2.29973 1.87835 2.18228 2.02042 2.13012 2.19015C2.07796 2.35989 2.09537 2.5434 2.17851 2.7003C2.26165 2.85721 2.40372 2.97466 2.57346 3.02682L4.96679 3.76015L8.02679 13.4268L6.93346 14.3202L6.84679 14.4068C6.57635 14.7185 6.42306 15.1147 6.41332 15.5272C6.40359 15.9397 6.53802 16.3428 6.79346 16.6668C6.97516 16.8878 7.20606 17.0632 7.46768 17.1789C7.7293 17.2947 8.01438 17.3476 8.30012 17.3335H19.4268C19.6036 17.3335 19.7732 17.2633 19.8982 17.1382C20.0232 17.0132 20.0935 16.8436 20.0935 16.6668C20.0935 16.49 20.0232 16.3204 19.8982 16.1954C19.7732 16.0704 19.6036 16.0002 19.4268 16.0002H8.19346C8.11669 15.9975 8.04189 15.9752 7.97629 15.9352C7.9107 15.8952 7.85652 15.839 7.81899 15.772C7.78145 15.705 7.76184 15.6294 7.76204 15.5526C7.76224 15.4758 7.78224 15.4003 7.82012 15.3335L9.42679 14.0002H19.7201C19.8742 14.0039 20.0249 13.9542 20.1464 13.8594C20.268 13.7645 20.3529 13.6305 20.3868 13.4802L22.5001 4.14682C22.5204 4.04743 22.5177 3.94473 22.4923 3.84653C22.4669 3.74833 22.4194 3.65723 22.3535 3.58015Z" fill="white"/>
</svg>
