<svg width="32" height="32" viewBox="0 0 32 32" fill="none" xmlns="http://www.w3.org/2000/svg">
<path d="M12.7539 20.2143L8.06516 8.38672L3.37637 20.2143M8.0653 25.1743C5.19856 25.1743 2.85259 22.8157 2.66699 19.8328H13.4636C13.278 22.8157 10.932 25.1743 8.0653 25.1743Z" stroke="white" stroke-width="1.5" stroke-linejoin="round"/>
<path d="M28.6241 20.2143L23.9353 8.38672L19.2465 20.2143M23.9354 25.1743C21.0687 25.1743 18.7227 22.8157 18.5371 19.8328H29.3337C29.1481 22.8157 26.8022 25.1743 23.9354 25.1743Z" stroke="white" stroke-width="1.5" stroke-linejoin="round"/>
<mask id="path-3-inside-1_11345_7031" fill="white">
<path fill-rule="evenodd" clip-rule="evenodd" d="M18.5125 8.38579C18.3375 9.68007 17.2852 10.675 16.0133 10.675C14.7414 10.675 13.6892 9.68007 13.5142 8.38579H7.71777C7.71777 7.75364 8.23023 7.24118 8.86238 7.24118H13.5931C13.9035 6.13797 14.8696 5.3335 16.0133 5.3335C17.157 5.3335 18.1231 6.13797 18.4335 7.24118H22.8036C23.4357 7.24118 23.9482 7.75364 23.9482 8.38579H18.5125ZM17.456 8.00425C17.456 8.84712 16.8101 9.5304 16.0133 9.5304C15.2165 9.5304 14.5706 8.84712 14.5706 8.00425C14.5706 7.16138 15.2165 6.47811 16.0133 6.47811C16.8101 6.47811 17.456 7.16138 17.456 8.00425Z"/>
</mask>
<path fill-rule="evenodd" clip-rule="evenodd" d="M18.5125 8.38579C18.3375 9.68007 17.2852 10.675 16.0133 10.675C14.7414 10.675 13.6892 9.68007 13.5142 8.38579H7.71777C7.71777 7.75364 8.23023 7.24118 8.86238 7.24118H13.5931C13.9035 6.13797 14.8696 5.3335 16.0133 5.3335C17.157 5.3335 18.1231 6.13797 18.4335 7.24118H22.8036C23.4357 7.24118 23.9482 7.75364 23.9482 8.38579H18.5125ZM17.456 8.00425C17.456 8.84712 16.8101 9.5304 16.0133 9.5304C15.2165 9.5304 14.5706 8.84712 14.5706 8.00425C14.5706 7.16138 15.2165 6.47811 16.0133 6.47811C16.8101 6.47811 17.456 7.16138 17.456 8.00425Z" fill="white"/>
<path d="M18.5125 8.38579V6.88579H17.2017L17.026 8.18479L18.5125 8.38579ZM13.5142 8.38579L15.0006 8.18479L14.825 6.88579H13.5142V8.38579ZM13.5931 7.24118V8.74118H14.7294L15.0371 7.64742L13.5931 7.24118ZM18.4335 7.24118L16.9896 7.64742L17.2973 8.74118H18.4335V7.24118ZM16.0133 11.0304C17.7169 11.0304 18.956 9.59497 18.956 8.00425H15.956C15.956 8.02238 15.9527 8.03424 15.9499 8.0414C15.9483 8.04526 15.9467 8.04816 15.9455 8.05016C15.9442 8.0522 15.9433 8.05306 15.9434 8.05296C15.9434 8.05294 15.9488 8.04731 15.9623 8.04127C15.9771 8.03463 15.9957 8.0304 16.0133 8.0304V11.0304ZM13.0706 8.00425C13.0706 9.59497 14.3098 11.0304 16.0133 11.0304V8.0304C16.031 8.0304 16.0496 8.03463 16.0644 8.04127C16.0779 8.04731 16.0832 8.05294 16.0832 8.05296C16.0833 8.05306 16.0825 8.0522 16.0812 8.05016C16.0799 8.04816 16.0783 8.04526 16.0768 8.0414C16.0739 8.03424 16.0706 8.02238 16.0706 8.00425H13.0706ZM16.0133 4.97811C14.3098 4.97811 13.0706 6.41354 13.0706 8.00425H16.0706C16.0706 7.98612 16.0739 7.97426 16.0768 7.9671C16.0783 7.96325 16.0799 7.96034 16.0812 7.95834C16.0825 7.95631 16.0833 7.95544 16.0832 7.95555C16.0832 7.95556 16.0779 7.96119 16.0644 7.96723C16.0496 7.97387 16.031 7.97811 16.0133 7.97811V4.97811ZM18.956 8.00425C18.956 6.41354 17.7169 4.97811 16.0133 4.97811V7.97811C15.9957 7.97811 15.9771 7.97387 15.9623 7.96723C15.9488 7.96119 15.9434 7.95556 15.9434 7.95555C15.9433 7.95544 15.9442 7.95631 15.9455 7.95834C15.9467 7.96034 15.9483 7.96325 15.9499 7.9671C15.9527 7.97426 15.956 7.98612 15.956 8.00425H18.956ZM16.0133 12.175C18.1095 12.175 19.7335 10.5498 19.999 8.58679L17.026 8.18479C16.9414 8.8103 16.461 9.17501 16.0133 9.17501V12.175ZM12.0277 8.58679C12.2931 10.5498 13.9172 12.175 16.0133 12.175V9.17501C15.5656 9.17501 15.0852 8.8103 15.0006 8.18479L12.0277 8.58679ZM7.71777 9.88579H13.5142V6.88579H7.71777V9.88579ZM13.5931 5.74118H8.86238V8.74118H13.5931V5.74118ZM16.0133 3.8335C14.131 3.8335 12.6229 5.15132 12.1492 6.83494L15.0371 7.64742C15.1842 7.12462 15.6082 6.8335 16.0133 6.8335V3.8335ZM19.8774 6.83494C19.4038 5.15132 17.8956 3.8335 16.0133 3.8335V6.8335C16.4185 6.8335 16.8425 7.12462 16.9896 7.64742L19.8774 6.83494ZM22.8036 5.74118H18.4335V8.74118H22.8036V5.74118ZM18.5125 9.88579H23.9482V6.88579H18.5125V9.88579ZM22.8036 8.74118C22.6073 8.74118 22.4482 8.58206 22.4482 8.38579H25.4482C25.4482 6.92521 24.2642 5.74118 22.8036 5.74118V8.74118ZM9.21777 8.38579C9.21777 8.58207 9.05866 8.74118 8.86238 8.74118V5.74118C7.40181 5.74118 6.21777 6.92521 6.21777 8.38579H9.21777Z" fill="white" mask="url(#path-3-inside-1_11345_7031)"/>
</svg>
