<svg width="32" height="32" viewBox="0 0 32 32" fill="none" xmlns="http://www.w3.org/2000/svg">
<path d="M11.8486 28.4443C12.9532 28.4443 13.8486 27.5489 13.8486 26.4443C13.8486 25.3398 12.9532 24.4443 11.8486 24.4443C10.7441 24.4443 9.84863 25.3398 9.84863 26.4443C9.84863 27.5489 10.7441 28.4443 11.8486 28.4443Z" fill="white"/>
<path d="M24 28.4443C25.1046 28.4443 26 27.5489 26 26.4443C26 25.3398 25.1046 24.4443 24 24.4443C22.8954 24.4443 22 25.3398 22 26.4443C22 27.5489 22.8954 28.4443 24 28.4443Z" fill="white"/>
<path d="M29.4042 4.77338C29.3215 4.67141 29.2172 4.58903 29.0989 4.53217C28.9805 4.4753 28.8511 4.44536 28.7198 4.44449H10.2131L10.7909 6.22227H27.5553L25.182 16.8889H11.8487L7.78644 4.02671C7.7425 3.89023 7.6662 3.7664 7.56404 3.66579C7.46189 3.56519 7.33691 3.49078 7.19977 3.44893L3.55533 2.32893C3.44327 2.2945 3.32552 2.28247 3.20881 2.29354C3.0921 2.30461 2.97872 2.33856 2.87513 2.39345C2.66592 2.5043 2.50932 2.69372 2.43977 2.92004C2.37023 3.14636 2.39343 3.39104 2.50429 3.60024C2.61514 3.80945 2.80457 3.96605 3.03088 4.0356L6.222 5.01338L10.302 17.9023L8.84422 19.0934L8.72866 19.2089C8.36807 19.6245 8.16368 20.1528 8.1507 20.7028C8.13772 21.2528 8.31696 21.7902 8.65755 22.2223C8.89983 22.5169 9.20769 22.7507 9.55652 22.9051C9.90535 23.0594 10.2855 23.13 10.6664 23.1112H25.502C25.7377 23.1112 25.9638 23.0175 26.1305 22.8508C26.2972 22.6841 26.3909 22.458 26.3909 22.2223C26.3909 21.9865 26.2972 21.7604 26.1305 21.5937C25.9638 21.427 25.7377 21.3334 25.502 21.3334H10.5242C10.4219 21.3299 10.3221 21.3 10.2347 21.2468C10.1472 21.1935 10.075 21.1185 10.0249 21.0292C9.97488 20.9398 9.94873 20.839 9.949 20.7366C9.94926 20.6342 9.97594 20.5336 10.0264 20.4445L12.1687 18.6667H25.8931C26.0986 18.6717 26.2995 18.6054 26.4615 18.479C26.6236 18.3526 26.7368 18.1739 26.782 17.9734L29.5998 5.52893C29.6268 5.39641 29.6232 5.25948 29.5894 5.12854C29.5555 4.99761 29.4921 4.87614 29.4042 4.77338V4.77338Z" fill="white"/>
</svg>
