<svg width="14" height="15" viewBox="0 0 14 15" fill="none" xmlns="http://www.w3.org/2000/svg">
<path d="M7.20102 0.833496C3.52102 0.833496 0.541016 3.82016 0.541016 7.50016C0.541016 11.1802 3.52102 14.1668 7.20102 14.1668C10.8877 14.1668 13.8743 11.1802 13.8743 7.50016C13.8743 3.82016 10.8877 0.833496 7.20102 0.833496ZM7.20768 12.8335C4.26102 12.8335 1.87435 10.4468 1.87435 7.50016C1.87435 4.5535 4.26102 2.16683 7.20768 2.16683C10.1543 2.16683 12.541 4.5535 12.541 7.50016C12.541 10.4468 10.1543 12.8335 7.20768 12.8335ZM7.54102 4.16683H6.54102V8.16683L10.041 10.2668L10.541 9.44683L7.54102 7.66683V4.16683Z" fill="#DF1638"/>
</svg>
