<svg width="15" height="14" viewBox="0 0 15 14" fill="none" xmlns="http://www.w3.org/2000/svg">
<path fill-rule="evenodd" clip-rule="evenodd" d="M7.59866 12.2302C9.14155 12.2302 10.3923 10.9794 10.3923 9.43655C10.3923 7.89366 9.14155 6.6429 7.59866 6.6429C6.05577 6.6429 4.80501 7.89366 4.80501 9.43655C4.80501 10.9794 6.05577 12.2302 7.59866 12.2302ZM7.59866 13.5635C9.87793 13.5635 11.7256 11.7158 11.7256 9.43655C11.7256 7.15728 9.87793 5.30957 7.59866 5.30957C5.31939 5.30957 3.47168 7.15728 3.47168 9.43655C3.47168 11.7158 5.31939 13.5635 7.59866 13.5635Z" fill="#DF1638"/>
<path fill-rule="evenodd" clip-rule="evenodd" d="M7.59859 2.16683C5.02371 2.16683 2.7617 3.55708 1.50349 5.65283L0.360352 4.96654C1.84545 2.49286 4.52869 0.833496 7.59859 0.833496C10.6685 0.833496 13.3517 2.49286 14.8368 4.96654L13.6937 5.65283C12.4355 3.55708 10.1735 2.16683 7.59859 2.16683Z" fill="#DF1638"/>
</svg>
